<svg xmlns="http://www.w3.org/2000/svg" viewBox="0 0 505.81 81.09"><defs><style>.cls-1{font-size:57.69px;fill:#ff824c;font-family:Poppins-ExtraLight, Poppins;font-weight:200;}.cls-2{opacity:0.2;}.cls-3{opacity:0.7;}</style></defs><title>Logo_MovieDates</title><g id="Layer_2" data-name="Layer 2"><g id="Layer_1-2" data-name="Layer 1"><text class="cls-1" transform="translate(0 49.13)">MovieDates</text><path class="cls-2" d="M428.11,5s1.27-3.81,10.58-4.28a11.79,11.79,0,0,1,4.21.54A32.82,32.82,0,0,1,455.75,9.5a12.12,12.12,0,0,0,11,3.39c12.46-2.49,38.13-3.94,39,26.25,1,34.59-34,26.94-43.41,24.28a11.77,11.77,0,0,1-5.2-3c-2.48-2.5-5.81-7.25-7-15.34a12.67,12.67,0,0,0-1-3.57l-.35-.74A12.07,12.07,0,0,0,440,34c-7.46-1.29-19.1-5.53-17.61-19.39C422.34,14.61,421.14,11,428.11,5Z"/><path class="cls-3" d="M371.66,37.34a23.36,23.36,0,0,0,.41,9.38C374.51,56.6,382.85,77.2,410.31,80c0,0,7.58,3,27.25-8.71a24.31,24.31,0,0,1,23.07-1l.32.16a24.63,24.63,0,0,0,23.8-1.36C492.17,64.5,499.93,57,497.39,47a21.27,21.27,0,0,0-16.15-16.94,23.16,23.16,0,0,0-9.31-.28l-.42.07a24.59,24.59,0,0,1-22.35-8.2C442.65,14.21,431.4,4.56,414.88,1.2a24.31,24.31,0,0,0-8.07-.3C397.49,2.16,376.44,8.24,371.66,37.34Z"/></g></g></svg>